<?xml version="1.0" encoding="utf-8"?>
<!-- Generator: Adobe Illustrator 17.0.0, SVG Export Plug-In . SVG Version: 6.00 Build 0)  -->
<!DOCTYPE svg PUBLIC "-//W3C//DTD SVG 1.1//EN" "http://www.w3.org/Graphics/SVG/1.1/DTD/svg11.dtd">
<svg version="1.1" xmlns="http://www.w3.org/2000/svg" xmlns:xlink="http://www.w3.org/1999/xlink" x="0px" y="0px" width="64px"
	 height="286px" viewBox="0 0 64 286" enable-background="new 0 0 64 286" xml:space="preserve">
<g id="Layer_1">
</g>
<g id="Layer_2">
	<path fill="#309F59" d="M61.334,117.478c0.003-0.006,0.005-0.012,0.008-0.02c0.191-0.489,0.37-0.984,0.537-1.485
		c0.009-0.026,0.018-0.053,0.028-0.08c0.157-0.476,0.303-0.956,0.437-1.441c0.015-0.053,0.031-0.106,0.046-0.16
		c0.124-0.454,0.236-0.913,0.339-1.376c0.019-0.084,0.04-0.168,0.058-0.253c0.093-0.431,0.174-0.866,0.249-1.304
		c0.02-0.115,0.043-0.229,0.061-0.344c0.066-0.413,0.12-0.831,0.17-1.25c0.016-0.138,0.038-0.274,0.052-0.411
		c0.044-0.415,0.075-0.835,0.102-1.255c0.009-0.14,0.025-0.278,0.032-0.418c0.03-0.557,0.046-1.117,0.046-1.682
		c0-0.531-0.014-1.058-0.04-1.583c-0.009-0.176-0.026-0.35-0.038-0.525c-0.023-0.347-0.045-0.695-0.079-1.038
		c-0.021-0.209-0.051-0.415-0.075-0.623c-0.036-0.306-0.071-0.612-0.117-0.915c-0.033-0.225-0.075-0.446-0.113-0.668
		c-0.049-0.282-0.095-0.565-0.152-0.846c-0.046-0.232-0.1-0.46-0.152-0.69c-0.059-0.267-0.118-0.533-0.184-0.797
		c-0.059-0.236-0.125-0.47-0.189-0.703c-0.07-0.253-0.139-0.505-0.215-0.755c-0.072-0.24-0.15-0.475-0.229-0.711
		c-0.079-0.24-0.158-0.479-0.242-0.715c-0.085-0.241-0.176-0.479-0.268-0.716c-0.088-0.227-0.175-0.454-0.268-0.679
		c-0.099-0.242-0.203-0.481-0.309-0.721c-0.094-0.212-0.188-0.425-0.287-0.635c-0.114-0.245-0.232-0.487-0.353-0.729
		c-0.099-0.198-0.199-0.395-0.302-0.59c-0.13-0.247-0.263-0.493-0.4-0.735c-0.102-0.182-0.206-0.362-0.311-0.543
		c-0.147-0.251-0.297-0.5-0.451-0.747c-0.102-0.163-0.207-0.325-0.312-0.486c-0.166-0.255-0.334-0.509-0.508-0.759
		c-0.1-0.145-0.203-0.287-0.306-0.43c-0.187-0.26-0.375-0.52-0.57-0.774c-0.094-0.122-0.19-0.242-0.285-0.362
		c-0.212-0.269-0.425-0.535-0.645-0.797c-0.081-0.096-0.165-0.189-0.246-0.284c-0.242-0.28-0.486-0.558-0.737-0.83
		c-0.056-0.06-0.115-0.119-0.171-0.178c-0.282-0.301-0.568-0.598-0.862-0.886c-0.013-0.012-0.026-0.025-0.039-0.037
		c-4.782-4.689-11.052-7.859-18.037-8.747c-0.003-0.001-0.006-0.001-0.009-0.002c-0.496-0.062-0.996-0.114-1.499-0.153
		c-0.003,0-0.005-0.001-0.008-0.001l0,0C33.671,74.543,32.841,74.5,32,74.5c-0.817,0-1.625,0.041-2.426,0.102l0,0
		c-0.002,0-0.004,0.001-0.006,0.001c-7.595,0.58-14.434,3.849-19.569,8.863c-0.022,0.022-0.045,0.043-0.067,0.065
		c-0.293,0.287-0.577,0.582-0.859,0.881c-0.058,0.061-0.117,0.121-0.175,0.183c-0.254,0.274-0.5,0.553-0.744,0.836
		c-0.08,0.093-0.161,0.183-0.24,0.277c-0.223,0.265-0.439,0.534-0.653,0.805c-0.093,0.119-0.187,0.235-0.279,0.355
		c-0.198,0.258-0.39,0.522-0.581,0.786c-0.099,0.139-0.199,0.276-0.296,0.417c-0.176,0.254-0.348,0.512-0.517,0.772
		c-0.103,0.158-0.205,0.316-0.305,0.476c-0.157,0.251-0.31,0.505-0.46,0.76c-0.103,0.174-0.204,0.35-0.303,0.527
		c-0.139,0.249-0.276,0.499-0.409,0.752c-0.1,0.191-0.198,0.382-0.295,0.575c-0.123,0.247-0.244,0.494-0.36,0.743
		c-0.097,0.207-0.19,0.416-0.282,0.624c-0.107,0.244-0.213,0.487-0.314,0.734c-0.091,0.22-0.176,0.443-0.262,0.666
		c-0.093,0.242-0.186,0.483-0.273,0.728c-0.083,0.234-0.161,0.47-0.239,0.706c-0.079,0.24-0.158,0.479-0.232,0.721
		c-0.075,0.248-0.143,0.498-0.212,0.749c-0.065,0.235-0.132,0.471-0.192,0.709c-0.066,0.262-0.124,0.528-0.183,0.793
		c-0.052,0.231-0.106,0.461-0.153,0.695c-0.056,0.278-0.102,0.56-0.15,0.841c-0.039,0.224-0.081,0.447-0.115,0.673
		c-0.045,0.302-0.079,0.606-0.116,0.911c-0.025,0.209-0.055,0.418-0.076,0.629c-0.034,0.345-0.056,0.692-0.079,1.04
		c-0.012,0.174-0.029,0.347-0.038,0.522C0.514,104.94,0.5,105.469,0.5,106c0,0.557,0.016,1.111,0.044,1.662
		c0.007,0.131,0.021,0.26,0.03,0.392c0.027,0.422,0.057,0.843,0.101,1.261c0.012,0.118,0.031,0.234,0.045,0.352
		c0.05,0.432,0.105,0.861,0.172,1.287c0.014,0.09,0.032,0.177,0.047,0.267c0.076,0.454,0.158,0.905,0.254,1.353
		c0.013,0.059,0.028,0.119,0.041,0.178c0.104,0.476,0.218,0.95,0.343,1.417c0.009,0.032,0.018,0.063,0.027,0.095
		c0.134,0.496,0.28,0.986,0.437,1.471c0.004,0.009,0.007,0.02,0.01,0.029c0.331,1.016,0.712,2.008,1.141,2.975l0,0l0,0
		c1.763,3.981,4.322,7.529,7.482,10.439l0,0c0.002,0.001,0.004,0.003,0.005,0.004c5.375,4.946,12.473,8.04,20.291,8.292l0,0
		c0.343,0.012,0.685,0.026,1.03,0.026c7.756,0,14.853-2.808,20.342-7.457l0,0c0.002-0.001,0.003-0.002,0.004-0.004
		C56.3,126.69,59.412,122.385,61.334,117.478z M51.809,126.187c-0.691-1.02-1.396-2.023-2.119-2.996
		c2.811-1.58,5.455-3.532,7.867-5.839c0.098,0.047,0.195,0.098,0.293,0.146C56.391,120.767,54.332,123.711,51.809,126.187z
		 M38.877,112.366c5.885,0.71,11.66,2.276,17.146,4.696c-2.249,2.073-4.692,3.839-7.281,5.268
		C45.542,118.185,42.144,114.63,38.877,112.366z M47.38,123.046c-4.518,2.254-9.437,3.526-14.486,3.707v-14.812
		c0.729,0.017,1.46,0.031,2.19,0.076C38.862,113.585,43.245,117.793,47.38,123.046z M32,77.699c0.841,0,1.672,0.044,2.495,0.117
		v4.005h1.15c4.163,0,7.537,3.374,7.537,7.537v3.727c0,1.832,0,7.536,0,7.536h-3.578v4.926c0,1.306-1.061,2.365-2.366,2.365
		c-1.307,0-2.367-1.059-2.367-2.365v-4.926h-4.129H28.88v4.664c0,1.306-1.06,2.364-2.367,2.364c-1.307,0-2.366-1.058-2.366-2.364
		v-4.664h-3.261c0,0,0-5.639,0-7.536v-3.727c0-4.163,3.374-7.537,7.537-7.537h1.151v-4.01C30.374,77.742,31.182,77.699,32,77.699z
		 M26.085,112.156c-3.527,2.131-7.254,5.913-10.754,10.406c-2.773-1.559-5.331-3.539-7.605-5.898
		C13.659,114.215,19.848,112.705,26.085,112.156z M30.774,111.932c0.065,0,0.13-0.003,0.196-0.003v14.84
		c-5.068-0.099-9.915-1.293-14.281-3.481C21.517,117.205,26.663,112.578,30.774,111.932z M6.084,117.353
		c0.036-0.016,0.071-0.035,0.107-0.051c2.43,2.614,5.183,4.799,8.184,6.517c-0.645,0.86-1.276,1.744-1.895,2.644
		C9.789,123.895,7.602,120.805,6.084,117.353z M13.593,127.471c0.695-1,1.402-1.981,2.123-2.928
		c4.651,2.388,9.83,3.694,15.253,3.794v5.939C24.349,134.036,18.302,131.514,13.593,127.471z M32.894,134.278v-5.957
		c5.399-0.181,10.647-1.562,15.456-4.02c0.746,0.987,1.476,2.011,2.193,3.051C45.782,131.493,39.633,134.068,32.894,134.278z"/>
	<g>
		<path fill="#1A74AB" d="M32,0.779c-17.397,0-31.5,14.103-31.5,31.5c0,17.397,14.103,31.5,31.5,31.5
			c17.397,0,31.5-14.103,31.5-31.5C63.5,14.883,49.397,0.779,32,0.779z M41.206,12.161c1.093,0,1.98,0.886,1.98,1.98
			s-0.886,1.98-1.98,1.98c-1.093,0-1.981-0.886-1.981-1.98S40.112,12.161,41.206,12.161z M35.229,12.161
			c1.093,0,1.981,0.886,1.981,1.98s-0.887,1.98-1.981,1.98c-1.092,0-1.98-0.886-1.98-1.98S34.137,12.161,35.229,12.161z
			 M29.07,12.161c1.093,0,1.98,0.886,1.98,1.98s-0.886,1.98-1.98,1.98c-1.092,0-1.98-0.886-1.98-1.98S27.977,12.161,29.07,12.161z
			 M22.728,12.161c1.093,0,1.98,0.886,1.98,1.98s-0.886,1.98-1.98,1.98c-1.092,0-1.98-0.886-1.98-1.98S21.635,12.161,22.728,12.161z
			 M13.139,44.187c-1.093,0-1.98-0.887-1.98-1.98c0-1.093,0.887-1.98,1.98-1.98s1.98,0.886,1.98,1.98
			C15.119,43.3,14.232,44.187,13.139,44.187z M13.139,37.845c-1.093,0-1.98-0.887-1.98-1.98c0-1.093,0.887-1.98,1.98-1.98
			s1.98,0.886,1.98,1.98C15.119,36.958,14.232,37.845,13.139,37.845z M13.139,31.686c-1.093,0-1.98-0.887-1.98-1.98
			c0-1.093,0.887-1.981,1.98-1.981s1.98,0.887,1.98,1.981C15.119,30.799,14.232,31.686,13.139,31.686z M13.139,25.711
			c-1.093,0-1.98-0.887-1.98-1.981s0.887-1.98,1.98-1.98s1.98,0.886,1.98,1.98S14.232,25.711,13.139,25.711z M22.728,53.776
			c-1.092,0-1.98-0.886-1.98-1.98s0.887-1.98,1.98-1.98c1.093,0,1.98,0.886,1.98,1.98S23.821,53.776,22.728,53.776z M29.07,53.776
			c-1.092,0-1.98-0.886-1.98-1.98s0.887-1.98,1.98-1.98c1.093,0,1.98,0.886,1.98,1.98S30.163,53.776,29.07,53.776z M35.229,53.776
			c-1.092,0-1.98-0.886-1.98-1.98s0.887-1.98,1.98-1.98c1.093,0,1.981,0.886,1.981,1.98S36.323,53.776,35.229,53.776z
			 M41.206,53.776c-1.093,0-1.981-0.886-1.981-1.98s0.887-1.98,1.981-1.98c1.093,0,1.98,0.886,1.98,1.98
			S42.299,53.776,41.206,53.776z M46.72,41.552c0,3.006-2.441,5.444-5.444,5.444H22.724c-3.003,0-5.444-2.438-5.444-5.444v-18.55
			c0-3.005,2.441-5.44,5.444-5.44h18.552c3.003,0,5.444,2.435,5.444,5.44V41.552z M50.794,44.187c-1.093,0-1.98-0.887-1.98-1.98
			c0-1.093,0.887-1.98,1.98-1.98c1.093,0,1.98,0.886,1.98,1.98C52.774,43.3,51.887,44.187,50.794,44.187z M50.794,37.845
			c-1.093,0-1.98-0.887-1.98-1.98c0-1.093,0.887-1.98,1.98-1.98c1.093,0,1.98,0.886,1.98,1.98
			C52.774,36.958,51.887,37.845,50.794,37.845z M50.794,31.686c-1.093,0-1.98-0.887-1.98-1.98c0-1.093,0.887-1.981,1.98-1.981
			c1.093,0,1.98,0.887,1.98,1.981C52.774,30.799,51.887,31.686,50.794,31.686z M50.794,25.711c-1.093,0-1.98-0.887-1.98-1.981
			s0.887-1.98,1.98-1.98c1.093,0,1.98,0.886,1.98,1.98S51.887,25.711,50.794,25.711z"/>
		<path fill="#1A74AB" d="M38.097,30.068h-3.38v-3.55c0-1.655-1.342-3-2.998-3c-1.655,0-2.995,1.345-2.995,3v3.55h-3.386
			c-1.613,0-2.921,1.336-2.921,2.993c0,1.658,1.308,2.995,2.921,2.995h3.386v3.547c0,1.657,1.34,2.998,2.995,2.998
			c1.656,0,2.998-1.341,2.998-2.998v-3.547h3.38c1.613,0,2.917-1.337,2.917-2.995C41.014,31.404,39.71,30.068,38.097,30.068z"/>
	</g>
	<g>
		<path fill="#844280" d="M30.273,166.665c0.018,3.325-0.863,7.62,0.401,9.629C29.409,174.285,30.298,169.981,30.273,166.665z"/>
		<path fill="#844280" d="M46.097,151.899c-0.359-0.061-0.694-0.223-0.97-0.463c-2.715-1.247-5.636-2.119-8.7-2.55
			c-0.192,0.225-0.431,0.415-0.721,0.538c-0.927,0.396-1.981,0.024-2.478-0.823c-0.407-0.016-0.814-0.031-1.225-0.031
			c-0.38,0-0.757,0.016-1.134,0.028c0.155,0.166,0.289,0.354,0.383,0.575c0.43,1.005-0.038,2.168-1.044,2.599
			c-1.006,0.43-2.169-0.038-2.599-1.043c-0.271-0.635-0.183-1.333,0.17-1.87c-5.943,0.797-11.358,3.255-15.772,6.883
			c0.608,0.13,1.147,0.542,1.41,1.156c0.429,1.005-0.039,2.169-1.043,2.599c-1.006,0.429-2.17-0.037-2.599-1.043
			c-0.078-0.181-0.116-0.368-0.137-0.554c-0.554,0.558-1.086,1.135-1.596,1.733c0.182,0.901-0.285,1.835-1.164,2.211
			c-0.218,0.093-0.443,0.136-0.666,0.149C2.617,167.113,0.5,173.344,0.5,180.076c0,16.364,12.477,29.81,28.436,31.354
			c-0.102-2.286-0.368-4.547-1.144-6.598c-0.298-0.789-0.497-1.57-0.871-2.332c-0.772-1.548-1.83-2.918-2.869-4.294
			c-2.032-2.702-4.133-5.576-3.752-9.155c0.323-3.016,0.425-4.207-0.538-7.474c-0.569-1.34,1.429-4.003,2.728-1.157
			c1.346,1.248,1.459,9.512,4.396,5.276c0.318-0.556,0.579-1.004,0.512-1.826v-20.716c-0.615-4.163,2.898-3.942,2.74-0.579
			c0.371,3.982,0.207,9.309,0.534,13.719c0.032,0.037,0.057,0.057,0.074,0.089c2.583-0.135,0.866-16.083,2.128-17.257
			c0.002-0.553,0.657-0.443,1.092-0.578c0.632-0.086,0.974,0.131,1.083,0.578c0,4.8,0.044,9.943,0,14.393
			c-0.01,1.448,0.438,1.503,0.438,1.699c0.42-2.778,0.254-10.987,0.659-14.358c0-0.391,0.232-1.307,2.18-1.155
			c0.475-0.104,1.073,0.798,1.098,1.155v14.961c0.128,0.732,1.638,0.748,1.638,0v-10.359c0.01-1.581,2.576-1.373,3.282-0.575v25.315
			c-1.093,4.124-3.272,8.086-3.912,12.298c-0.148,1.002-0.253,3.968-0.328,8.025c13.473-3.576,23.404-15.851,23.404-30.449
			C63.509,167.743,56.42,157.073,46.097,151.899z M6.881,169.104c-1.006,0.43-2.169-0.039-2.599-1.043
			c-0.43-1.006,0.038-2.169,1.043-2.6c1.006-0.429,2.17,0.038,2.6,1.044C8.354,167.511,7.886,168.674,6.881,169.104z
			 M12.377,166.757c-1.006,0.429-2.17-0.038-2.599-1.043c-0.43-1.006,0.038-2.169,1.044-2.6c1.005-0.429,2.169,0.038,2.599,1.044
			C13.85,165.163,13.382,166.328,12.377,166.757z M18.043,164.337c-1.006,0.429-2.169-0.038-2.599-1.044
			c-0.429-1.005,0.038-2.168,1.044-2.599c1.004-0.429,2.169,0.038,2.599,1.043C19.515,162.744,19.048,163.908,18.043,164.337z
			 M18.043,157.079c-1.006,0.429-2.169-0.039-2.599-1.044c-0.429-1.005,0.038-2.168,1.044-2.599
			c1.004-0.429,2.169,0.039,2.599,1.043C19.515,155.485,19.048,156.65,18.043,157.079z M23.876,161.846
			c-1.006,0.429-2.169-0.038-2.599-1.044c-0.43-1.005,0.037-2.168,1.043-2.599c1.005-0.429,2.169,0.039,2.599,1.043
			C25.348,160.252,24.881,161.417,23.876,161.846z M23.876,154.588c-1.006,0.429-2.169-0.038-2.599-1.044
			c-0.43-1.005,0.037-2.168,1.043-2.599c1.005-0.429,2.169,0.038,2.599,1.043C25.348,152.994,24.881,154.159,23.876,154.588z
			 M30.211,159.031c-1.006,0.43-2.169-0.039-2.599-1.043c-0.43-1.006,0.038-2.169,1.043-2.6c1.006-0.429,2.17,0.038,2.6,1.044
			C31.684,157.437,31.216,158.601,30.211,159.031z M35.707,156.683c-1.006,0.429-2.17-0.038-2.599-1.043
			c-0.43-1.006,0.038-2.169,1.044-2.6c1.005-0.429,2.169,0.039,2.599,1.044C37.179,155.09,36.712,156.254,35.707,156.683z
			 M41.373,154.264c-1.006,0.429-2.169-0.038-2.599-1.044c-0.429-1.005,0.038-2.168,1.044-2.599
			c1.004-0.429,2.169,0.038,2.599,1.043C42.845,152.67,42.378,153.835,41.373,154.264z"/>
	</g>
	<g>
		<path fill="#E44A4D" d="M22.622,280.379h-7.674c3.041,1.962,6.441,3.414,10.079,4.239
			C23.763,283.568,22.887,282.074,22.622,280.379z"/>
		<path fill="#E44A4D" d="M6.937,250.893c-0.294,0.04-0.592,0.066-0.896,0.066c-2.028,0-3.849-0.886-5.113-2.284
			c-0.282,1.696-0.436,3.436-0.436,5.212c0,9.814,4.487,18.578,11.52,24.358h9.792L6.937,250.893z"/>
		<path fill="#E44A4D" d="M34.194,279.312c0-2.627-2.137-4.765-4.765-4.765c-2.627,0-4.765,2.138-4.765,4.765
			c0,2.627,2.137,4.765,4.765,4.765C32.056,284.077,34.194,281.939,34.194,279.312z"/>
		<path fill="#E44A4D" d="M10.805,244.06c0-2.627-2.137-4.765-4.765-4.765c-0.828,0-1.595,0.231-2.275,0.604
			c-0.909,1.833-1.646,3.766-2.188,5.78c0.666,1.828,2.406,3.146,4.462,3.146C8.668,248.825,10.805,246.687,10.805,244.06z"/>
		<path fill="#E44A4D" d="M21.464,259.193c0,2.627,2.137,4.765,4.765,4.765c2.627,0,4.765-2.138,4.765-4.765
			c0-2.627-2.137-4.765-4.765-4.765C23.601,254.428,21.464,256.566,21.464,259.193z"/>
		<path fill="#E44A4D" d="M32.719,285.374c6.014-0.135,11.613-1.944,16.343-4.995H36.236
			C35.899,282.535,34.567,284.367,32.719,285.374z"/>
		<polygon fill="#E44A4D" points="44.648,234.811 51.94,243.644 47.189,242.616 44.049,246.274 		"/>
		<path fill="#E44A4D" d="M63.518,253.887c0-17.404-14.109-31.513-31.513-31.513c-11.277,0-21.165,5.928-26.733,14.833
			c0.253-0.028,0.509-0.046,0.769-0.046c3.44,0,6.292,2.535,6.807,5.832h13.554v0.015h1.067v9.404
			c2.867,0.523,5.115,2.823,5.567,5.714h7.134l0.93-8.77c-2.634-1.764-4.369-4.765-4.369-8.174c0-5.431,4.401-9.832,9.831-9.832
			c5.43,0,9.832,4.402,9.832,9.832c0,5.297-4.191,9.603-9.436,9.813l-4.751,7.131H54.99v0.026h1.067v16.086
			C60.708,268.747,63.518,261.647,63.518,253.887z"/>
		<path fill="#E44A4D" d="M53.928,275.013h-0.005V260.26H40.786l-1.003,1.505l0.16-1.505h-6.908
			c-0.515,3.297-3.367,5.832-6.807,5.832c-3.804,0-6.898-3.095-6.898-6.899c0-3.5,2.623-6.393,6.005-6.834v-7.232H12.848
			c-0.355,2.272-1.818,4.176-3.822,5.143l14.18,26.086c1.109-2.327,3.478-3.943,6.224-3.943c3.44,0,6.292,2.535,6.807,5.832h15.762
			c0.669-0.55,1.309-1.132,1.93-1.735V275.013z"/>
	</g>
	<image display="none" overflow="visible" width="64" height="286" xlink:href="newsicon.png" >
	</image>
</g>
</svg>
