<?xml version="1.0" encoding="utf-8"?>
<!-- Generated by IcoMoon.io -->
<!DOCTYPE svg PUBLIC "-//W3C//DTD SVG 1.1//EN" "http://www.w3.org/Graphics/SVG/1.1/DTD/svg11.dtd">
<svg version="1.1" xmlns="http://www.w3.org/2000/svg" xmlns:xlink="http://www.w3.org/1999/xlink" width="18" height="18" viewBox="0 0 18 18">
	<path d="M5.625 6.75h2.25v2.25h-2.25zM9 6.75h2.25v2.25h-2.25zM12.375 6.75h2.25v2.25h-2.25zM2.25 13.5h2.25v2.25h-2.25zM5.625 13.5h2.25v2.25h-2.25zM9 13.5h2.25v2.25h-2.25zM5.625 10.125h2.25v2.25h-2.25zM9 10.125h2.25v2.25h-2.25zM12.375 10.125h2.25v2.25h-2.25zM2.25 10.125h2.25v2.25h-2.25zM14.625 0v1.125h-2.25v-1.125h-7.875v1.125h-2.25v-1.125h-2.25v18h16.875v-18h-2.25zM15.75 16.875h-14.625v-12.375h14.625v12.375z" fill="#404040" />
</svg>
