<?xml version="1.0" encoding="utf-8"?>
<!-- Generated by IcoMoon.io -->
<!DOCTYPE svg PUBLIC "-//W3C//DTD SVG 1.1//EN" "http://www.w3.org/Graphics/SVG/1.1/DTD/svg11.dtd">
<svg version="1.1" xmlns="http://www.w3.org/2000/svg" xmlns:xlink="http://www.w3.org/1999/xlink" width="18" height="18" viewBox="0 0 18 18">
	<path d="M17.442 15.318l-4.264-3.626c-0.441-0.397-0.912-0.579-1.293-0.561 1.006-1.179 1.614-2.708 1.614-4.38 0-3.728-3.022-6.75-6.75-6.75-3.728 0-6.75 3.022-6.75 6.75 0 3.728 3.022 6.75 6.75 6.75 1.672 0 3.201-0.608 4.38-1.614-0.018 0.381 0.165 0.852 0.561 1.293l3.626 4.264c0.621 0.69 1.635 0.748 2.254 0.129s0.561-1.633-0.129-2.254zM6.75 11.25c-2.485 0-4.5-2.015-4.5-4.5s2.015-4.5 4.5-4.5 4.5 2.015 4.5 4.5-2.015 4.5-4.5 4.5z" fill="#404040" />
</svg>
